<svg width="329" height="376" viewBox="0 0 329 376" fill="none" xmlns="http://www.w3.org/2000/svg">
<path d="M156.851 210.876C156.724 210.876 156.596 210.812 156.508 210.71L141.201 192.501C141.1 192.374 141.074 192.209 141.125 192.056L149.274 169.702C149.325 169.549 149.465 169.447 149.617 169.409L173.072 165.276C173.225 165.251 173.39 165.302 173.492 165.429L188.798 183.638C188.9 183.765 188.925 183.931 188.874 184.083L180.725 206.438C180.674 206.59 180.535 206.692 180.382 206.73L156.927 210.863C156.927 210.863 156.876 210.863 156.851 210.863V210.876ZM142.053 192.12L157.016 209.935L179.963 205.891L187.933 184.032L172.971 166.217L150.024 170.261L142.053 192.12Z" fill="black" fill-opacity="0.6"/>
<path d="M154.295 211.448C154.155 211.448 154.015 211.372 153.926 211.257L139.395 190.543C139.306 190.416 139.294 190.238 139.357 190.098L150.074 167.171C150.138 167.031 150.277 166.929 150.443 166.917L175.678 164.704C175.843 164.691 175.995 164.768 176.084 164.895L190.615 185.622C190.704 185.749 190.717 185.927 190.653 186.067L179.936 208.994C179.873 209.134 179.733 209.235 179.568 209.248L154.333 211.461C154.333 211.461 154.307 211.461 154.295 211.461V211.448ZM140.285 190.238L154.511 210.532L179.237 208.371L189.725 185.914L175.5 165.62L150.773 167.781L140.285 190.238Z" fill="black" fill-opacity="0.6"/>
<path d="M178.475 211.829H151.524C151.358 211.829 151.218 211.74 151.129 211.6L137.654 188.292C137.578 188.152 137.578 187.987 137.654 187.847L151.129 164.538C151.206 164.399 151.358 164.31 151.524 164.31H178.475C178.64 164.31 178.78 164.399 178.869 164.538L192.344 187.847C192.421 187.987 192.421 188.152 192.344 188.292L178.869 211.6C178.792 211.74 178.64 211.829 178.475 211.829ZM151.778 210.926H178.208L191.429 188.063L178.208 165.2H151.778L138.556 188.063L151.778 210.926Z" fill="black" fill-opacity="0.6"/>
<path d="M177.126 214.474C177.126 214.474 177.101 214.474 177.088 214.474L148.523 211.969C148.357 211.956 148.218 211.855 148.154 211.715L136.026 185.762C135.962 185.622 135.975 185.444 136.064 185.317L152.502 161.868C152.591 161.741 152.756 161.665 152.909 161.678L181.474 164.183C181.64 164.195 181.779 164.297 181.843 164.437L193.971 190.39C194.034 190.53 194.022 190.708 193.933 190.835L177.495 214.284C177.406 214.398 177.279 214.474 177.126 214.474ZM148.853 211.105L176.898 213.559L193.043 190.53L181.144 165.047L153.099 162.593L136.954 185.622L148.853 211.105Z" fill="black" fill-opacity="0.6"/>
<path d="M175.45 217.145C175.45 217.145 175.399 217.145 175.374 217.145L145.333 211.842C145.181 211.817 145.041 211.702 144.99 211.55L134.553 182.926C134.502 182.773 134.527 182.608 134.629 182.481L154.232 159.16C154.334 159.033 154.486 158.982 154.652 159.007L184.692 164.31C184.845 164.335 184.984 164.45 185.035 164.602L195.472 193.226C195.523 193.379 195.498 193.544 195.396 193.671L175.793 216.992C175.704 217.094 175.577 217.157 175.45 217.157V217.145ZM145.74 211.003L175.272 216.216L194.532 193.29L184.272 165.149L154.741 159.936L135.481 182.862L145.74 211.003Z" fill="black" fill-opacity="0.6"/>
<path d="M173.415 219.828C173.415 219.828 173.339 219.828 173.301 219.815L141.951 211.41C141.799 211.372 141.671 211.245 141.633 211.092L133.217 179.785C133.179 179.633 133.217 179.467 133.332 179.353L156.266 156.451C156.38 156.337 156.545 156.299 156.698 156.337L188.048 164.742C188.2 164.78 188.327 164.908 188.365 165.06L196.781 196.367C196.819 196.519 196.781 196.685 196.667 196.799L173.733 219.701C173.644 219.79 173.53 219.828 173.415 219.828ZM142.434 210.609L173.275 218.874L195.841 196.341L187.565 165.531L156.723 157.265L134.158 179.798L142.434 210.609Z" fill="black" fill-opacity="0.6"/>
<path d="M171.013 222.486C171.013 222.486 170.911 222.486 170.86 222.46L138.417 210.647C138.265 210.596 138.163 210.456 138.125 210.304L132.112 176.352C132.086 176.2 132.137 176.034 132.264 175.933L158.694 153.781C158.821 153.68 158.987 153.654 159.139 153.705L191.582 165.518C191.735 165.569 191.836 165.709 191.875 165.862L197.888 199.813C197.913 199.966 197.862 200.131 197.735 200.233L171.305 222.384C171.229 222.448 171.115 222.486 171.013 222.486ZM138.964 209.897L170.924 221.532L196.96 199.724L191.036 166.281L159.076 154.646L133.04 176.454L138.964 209.897Z" fill="black" fill-opacity="0.6"/>
<path d="M168.229 225.066C168.165 225.066 168.102 225.054 168.038 225.028L134.756 209.502C134.616 209.439 134.515 209.299 134.502 209.133L131.273 172.588C131.26 172.422 131.336 172.27 131.464 172.181L161.529 151.161C161.656 151.072 161.834 151.06 161.974 151.123L195.256 166.649C195.396 166.713 195.498 166.853 195.511 167.018L198.74 203.564C198.752 203.729 198.676 203.882 198.549 203.971L168.483 224.99C168.407 225.041 168.318 225.066 168.229 225.066ZM135.366 208.79L168.178 224.1L197.812 203.373L194.633 167.349L161.822 152.039L132.188 172.766L135.366 208.79Z" fill="black" fill-opacity="0.6"/>
<path d="M165.037 227.559C164.961 227.559 164.885 227.533 164.809 227.495L130.967 207.951C130.827 207.875 130.738 207.722 130.738 207.557L130.713 168.531C130.713 168.366 130.802 168.226 130.942 168.137L164.745 148.644C164.885 148.567 165.05 148.567 165.19 148.644L199.031 168.188C199.171 168.264 199.26 168.417 199.26 168.582L199.286 207.607C199.286 207.773 199.197 207.913 199.057 208.002L165.254 227.495C165.19 227.533 165.101 227.559 165.025 227.559H165.037ZM131.654 207.315L165.037 226.592L198.396 207.366L198.37 168.862L164.987 149.585L131.628 168.811L131.654 207.315Z" fill="black" fill-opacity="0.6"/>
<path d="M161.414 229.886C161.325 229.886 161.236 229.86 161.16 229.809L127.115 205.967C126.988 205.878 126.912 205.725 126.924 205.56L130.509 164.195C130.522 164.03 130.624 163.89 130.763 163.826L168.393 146.304C168.533 146.24 168.711 146.253 168.838 146.342L202.883 170.184C203.01 170.273 203.087 170.426 203.074 170.591L199.489 211.956C199.476 212.122 199.374 212.261 199.235 212.325L161.605 229.848C161.605 229.848 161.478 229.886 161.414 229.886ZM127.84 205.369L161.465 228.919L198.624 211.626L202.171 170.782L168.546 147.232L131.386 164.526L127.84 205.369Z" fill="black" fill-opacity="0.6"/>
<path d="M157.372 232.035C157.27 232.035 157.168 231.997 157.079 231.933L123.213 203.5C123.085 203.398 123.035 203.233 123.06 203.08L130.7 159.579C130.726 159.427 130.84 159.287 130.993 159.236L172.5 144.168C172.653 144.117 172.818 144.142 172.945 144.244L206.812 172.677C206.939 172.778 206.99 172.944 206.964 173.096L199.324 216.598C199.299 216.75 199.184 216.89 199.032 216.941L157.524 232.022C157.524 232.022 157.423 232.047 157.372 232.047V232.035ZM123.988 202.979L157.461 231.081L198.485 216.178L206.024 173.185L172.551 145.083L131.527 159.986L123.988 202.979Z" fill="black" fill-opacity="0.6"/>
<path d="M152.885 233.917C152.77 233.917 152.656 233.866 152.567 233.79L119.31 200.525C119.196 200.41 119.158 200.245 119.196 200.093L131.324 154.697C131.362 154.544 131.489 154.417 131.642 154.379L177.026 142.248C177.179 142.21 177.344 142.248 177.459 142.362L210.715 175.627C210.83 175.741 210.868 175.907 210.83 176.059L198.702 221.455C198.664 221.608 198.536 221.735 198.384 221.773L152.999 233.904C152.999 233.904 152.923 233.917 152.885 233.917ZM120.124 200.067L153.025 232.976L197.913 220.985L209.902 176.085L177.001 143.176L132.112 155.167L120.124 200.067Z" fill="black" fill-opacity="0.6"/>
<path d="M147.951 235.506C147.824 235.506 147.697 235.443 147.608 235.341L115.444 197.003C115.343 196.875 115.317 196.71 115.368 196.558L132.429 149.572C132.48 149.42 132.619 149.305 132.772 149.28L181.996 140.633C182.148 140.607 182.314 140.658 182.415 140.785L214.579 179.124C214.68 179.251 214.706 179.416 214.655 179.569L197.594 226.554C197.544 226.707 197.404 226.821 197.251 226.847L148.027 235.494C148.027 235.494 147.976 235.494 147.951 235.494V235.506ZM116.296 196.621L148.129 234.565L196.844 226.008L213.727 179.505L181.894 141.561L133.179 150.119L116.296 196.621Z" fill="black" fill-opacity="0.6"/>
<path d="M142.573 236.74C142.434 236.74 142.294 236.664 142.205 236.549L111.669 192.933C111.58 192.806 111.567 192.628 111.631 192.488L134.056 144.269C134.119 144.13 134.259 144.028 134.425 144.015L187.386 139.425C187.539 139.412 187.704 139.488 187.793 139.615L218.329 183.231C218.418 183.358 218.431 183.536 218.367 183.676L195.942 231.895C195.878 232.035 195.738 232.137 195.573 232.149L142.612 236.74C142.612 236.74 142.586 236.74 142.573 236.74ZM112.559 192.628L142.802 235.824L195.255 231.272L217.464 183.524L187.221 140.328L134.768 144.88L112.559 192.628Z" fill="black" fill-opacity="0.6"/>
<path d="M193.324 237.579L136.765 237.541C136.599 237.541 136.46 237.452 136.371 237.312L108.059 188.254C107.983 188.114 107.983 187.949 108.059 187.809L136.307 138.789C136.383 138.649 136.536 138.56 136.701 138.56L193.26 138.598C193.425 138.598 193.565 138.687 193.654 138.827L221.966 187.885C222.042 188.025 222.042 188.19 221.966 188.33L193.718 237.35C193.642 237.49 193.489 237.579 193.324 237.579ZM137.019 236.638L193.057 236.676L221.038 188.114L192.981 139.501L136.943 139.463L108.962 188.025L137.019 236.638Z" fill="black" fill-opacity="0.6"/>
<path d="M190.463 243.149C190.463 243.149 190.438 243.149 190.425 243.149L130.484 237.859C130.319 237.846 130.179 237.745 130.116 237.605L104.652 182.99C104.588 182.85 104.601 182.672 104.69 182.545L139.167 133.219C139.256 133.092 139.421 133.016 139.574 133.029L199.515 138.319C199.68 138.331 199.82 138.433 199.883 138.573L225.347 193.188C225.411 193.328 225.398 193.506 225.309 193.633L190.832 242.958C190.743 243.072 190.616 243.149 190.463 243.149ZM130.828 236.982L190.247 242.233L224.419 193.328L199.172 139.183L139.752 133.932L105.58 182.837L130.828 236.982Z" fill="black" fill-opacity="0.6"/>
<path d="M186.929 248.769C186.929 248.769 186.878 248.769 186.853 248.769L123.823 237.605C123.67 237.579 123.53 237.465 123.479 237.312L101.563 177.064C101.512 176.911 101.537 176.746 101.639 176.619L142.752 127.535C142.854 127.408 143.019 127.357 143.171 127.383L206.201 138.547C206.354 138.573 206.494 138.687 206.545 138.84L228.462 199.088C228.512 199.241 228.487 199.406 228.385 199.533L187.272 248.617C187.183 248.718 187.056 248.782 186.929 248.782V248.769ZM124.229 236.753L186.751 247.828L227.521 199.152L205.782 139.399L143.26 128.324L102.491 177L124.229 236.753Z" fill="black" fill-opacity="0.6"/>
<path d="M182.645 254.402C182.645 254.402 182.569 254.402 182.531 254.389L116.768 236.714C116.615 236.676 116.488 236.549 116.45 236.396L98.8043 170.515C98.7662 170.362 98.8043 170.197 98.9188 170.082L147.037 121.876C147.151 121.762 147.316 121.724 147.469 121.762L213.232 139.437C213.385 139.475 213.512 139.602 213.55 139.755L231.195 205.636C231.233 205.789 231.195 205.954 231.081 206.069L182.963 254.275C182.874 254.364 182.76 254.402 182.645 254.402ZM117.251 235.913L182.518 253.461L230.267 205.624L212.749 140.238L147.482 122.69L99.7324 170.528L117.251 235.913Z" fill="black" fill-opacity="0.6"/>
<path d="M177.598 259.984C177.598 259.984 177.497 259.984 177.446 259.959L109.394 235.125C109.242 235.074 109.14 234.934 109.102 234.781L96.5034 163.33C96.478 163.178 96.5289 163.012 96.656 162.911L152.109 116.294C152.236 116.192 152.402 116.167 152.554 116.218L220.606 141.052C220.758 141.103 220.86 141.243 220.898 141.395L233.496 212.846C233.522 212.999 233.471 213.164 233.344 213.266L177.891 259.883C177.814 259.946 177.7 259.984 177.598 259.984ZM109.941 234.362L177.509 259.018L232.568 212.732L220.059 141.79L152.491 117.133L97.4315 163.419L109.941 234.362Z" fill="black" fill-opacity="0.6"/>
<path d="M171.724 265.414C171.661 265.414 171.597 265.401 171.534 265.376L101.715 232.747C101.575 232.683 101.474 232.543 101.461 232.378L94.7358 155.485C94.723 155.32 94.7993 155.167 94.9264 155.078L158.02 110.814C158.147 110.725 158.325 110.712 158.465 110.776L228.284 143.405C228.423 143.468 228.525 143.608 228.538 143.773L235.263 220.667C235.276 220.832 235.199 220.985 235.072 221.074L171.979 265.338C171.902 265.389 171.813 265.414 171.724 265.414ZM102.325 232.035L171.674 264.448L234.348 220.476L227.661 144.091L158.312 111.678L95.6384 155.65L102.325 232.035Z" fill="black" fill-opacity="0.6"/>
<path d="M165 270.641C164.923 270.641 164.847 270.616 164.771 270.577L93.7952 229.518C93.6554 229.441 93.5664 229.289 93.5664 229.123V147.004C93.5664 146.839 93.6554 146.699 93.7952 146.61L164.771 105.55C164.911 105.474 165.076 105.474 165.216 105.55L236.191 146.61C236.331 146.686 236.42 146.839 236.42 147.004V229.123C236.42 229.289 236.331 229.429 236.191 229.518L165.216 270.577C165.152 270.616 165.063 270.641 164.987 270.641H165ZM94.4817 228.882L165 269.675L235.517 228.882V147.284L165 106.491L94.4817 147.284V228.882Z" fill="black" fill-opacity="0.6"/>
<path d="M157.384 275.549C157.295 275.549 157.206 275.524 157.13 275.473L85.7223 225.385C85.5952 225.296 85.5189 225.143 85.5316 224.978L93.1466 137.95C93.1593 137.785 93.261 137.645 93.4009 137.581L172.424 100.654C172.563 100.59 172.741 100.603 172.868 100.692L244.276 150.78C244.403 150.869 244.48 151.022 244.467 151.187L236.852 238.215C236.839 238.38 236.737 238.52 236.598 238.584L157.575 275.511C157.575 275.511 157.448 275.549 157.384 275.549ZM86.447 224.787L157.435 274.583L235.987 237.872L243.552 151.365L172.563 101.57L94.0111 138.28L86.447 224.787Z" fill="black" fill-opacity="0.6"/>
<path d="M148.866 280.05C148.765 280.05 148.663 280.012 148.574 279.949L77.5476 220.235C77.4205 220.133 77.3696 219.968 77.395 219.815L93.5275 128.298C93.553 128.146 93.6674 128.006 93.8199 127.955L180.992 96.1397C181.144 96.0888 181.309 96.1143 181.436 96.216L252.463 155.93C252.59 156.032 252.641 156.197 252.615 156.35L236.483 247.866C236.457 248.019 236.343 248.159 236.19 248.21L149.019 280.025C149.019 280.025 148.917 280.05 148.866 280.05ZM78.3231 219.713L148.955 279.097L235.631 247.459L251.675 156.451L181.042 97.068L94.3666 128.705L78.3231 219.713Z" fill="black" fill-opacity="0.6"/>
<path d="M139.421 284.017C139.307 284.017 139.192 283.967 139.103 283.89L69.3611 214.016C69.2467 213.902 69.2086 213.736 69.2467 213.584L94.8248 118.087C94.863 117.935 94.9901 117.807 95.1427 117.769L190.463 92.1466C190.616 92.1085 190.781 92.1466 190.895 92.2611L260.638 162.135C260.752 162.25 260.79 162.415 260.752 162.568L235.174 258.064C235.136 258.217 235.009 258.344 234.856 258.382L139.536 284.005C139.536 284.005 139.459 284.017 139.421 284.017ZM70.1748 213.571L139.548 283.077L234.373 257.581L259.824 162.58L190.45 93.0749L95.6257 118.57L70.1748 213.571Z" fill="black" fill-opacity="0.6"/>
<path d="M129.035 287.362C128.908 287.362 128.78 287.299 128.691 287.197L61.2501 206.68C61.1484 206.552 61.123 206.387 61.1739 206.234L97.1383 107.406C97.1892 107.254 97.329 107.152 97.4816 107.114L200.875 88.79C201.027 88.7646 201.192 88.8155 201.294 88.9426L268.735 169.46C268.837 169.587 268.863 169.752 268.812 169.905L232.847 268.733C232.796 268.886 232.657 268.988 232.504 269.026L129.111 287.35C129.111 287.35 129.06 287.35 129.035 287.35V287.362ZM62.1146 206.311L129.213 286.421L232.097 268.187L267.884 169.841L200.786 89.731L97.9011 107.966L62.1146 206.311Z" fill="black" fill-opacity="0.7"/>
<path d="M117.734 289.931C117.594 289.931 117.454 289.854 117.365 289.74L53.3562 198.16C53.2672 198.032 53.2545 197.854 53.318 197.714L100.597 96.3048C100.66 96.165 100.8 96.0632 100.966 96.0505L212.241 86.2211C212.393 86.2084 212.558 86.2847 212.647 86.4118L276.656 177.992C276.745 178.119 276.758 178.297 276.694 178.437L229.416 279.847C229.352 279.987 229.212 280.088 229.047 280.101L117.772 289.931C117.772 289.931 117.746 289.931 117.734 289.931ZM54.2461 197.854L117.95 289.015L228.716 279.236L275.766 178.297L212.063 87.1367L101.296 96.9152L54.2461 197.854Z" fill="black" fill-opacity="0.8"/>
<path d="M105.504 291.609C105.338 291.609 105.198 291.52 105.109 291.381L45.7662 188.394C45.6899 188.254 45.6899 188.089 45.7662 187.949L105.262 84.8609C105.338 84.721 105.491 84.632 105.656 84.632L224.495 84.543C224.661 84.543 224.8 84.632 224.889 84.7719L284.233 187.758C284.309 187.898 284.309 188.063 284.233 188.203L224.737 291.292C224.661 291.431 224.508 291.52 224.343 291.52L105.504 291.609ZM46.6815 188.165L105.758 290.707L224.076 290.618L283.317 187.987L224.241 85.4458L105.923 85.5348L46.6815 188.165Z" fill="black" fill-opacity="0.7"/>
<path d="M218.342 303.181C218.342 303.181 218.317 303.181 218.304 303.181L92.3459 292.258C92.1807 292.245 92.0408 292.144 91.9773 292.004L38.6471 177.344C38.5836 177.204 38.5963 177.026 38.6853 176.899L111.301 73.175C111.39 73.0479 111.542 72.9716 111.708 72.9843L237.666 83.9073C237.831 83.92 237.971 84.0217 238.034 84.1616L291.377 198.809C291.441 198.948 291.428 199.126 291.339 199.254L218.724 302.978C218.635 303.092 218.508 303.168 218.355 303.168L218.342 303.181ZM92.6892 291.381L218.126 302.265L290.437 198.961L237.31 84.7847L111.873 73.8998L39.5625 177.191L92.6892 291.368V291.381Z" fill="black" fill-opacity="0.6"/>
<path d="M210.905 314.981C210.905 314.981 210.854 314.981 210.829 314.981L78.3615 291.724C78.2089 291.698 78.0691 291.584 78.0182 291.431L32.1123 164.971C32.0615 164.819 32.0869 164.653 32.1886 164.526L118.75 61.3362C118.852 61.209 119.017 61.1582 119.169 61.1836L251.637 84.4411C251.789 84.4665 251.929 84.5809 251.98 84.7335L297.886 211.181C297.937 211.333 297.911 211.499 297.81 211.626L211.235 314.816C211.146 314.918 211.019 314.981 210.892 314.981H210.905ZM78.7683 290.872L210.727 314.04L296.958 211.244L251.23 85.2803L119.271 62.1119L33.0404 164.908L78.7683 290.872Z" fill="black" fill-opacity="0.5"/>
<path d="M201.93 326.794C201.93 326.794 201.854 326.794 201.816 326.781L63.5772 289.841C63.4247 289.803 63.2975 289.676 63.2594 289.524L26.3288 151.263C26.2906 151.111 26.3288 150.945 26.4432 150.831L127.764 49.4847C127.878 49.3703 128.044 49.3321 128.196 49.3703L266.435 86.3101C266.588 86.3482 266.715 86.4754 266.753 86.628L303.684 224.901C303.722 225.054 303.684 225.219 303.569 225.333L202.261 326.667C202.172 326.756 202.058 326.794 201.943 326.794H201.93ZM64.0603 289.04L201.791 325.84L302.73 224.876L265.939 87.1112L128.209 50.3112L27.2695 151.276L64.0603 289.04Z" fill="black" fill-opacity="0.4"/>
<path d="M191.315 338.48C191.315 338.48 191.213 338.48 191.162 338.455L48.0927 286.497C47.9402 286.447 47.8258 286.307 47.8003 286.154L21.4849 136.195C21.4594 136.042 21.5103 135.877 21.6374 135.775L138.404 37.7736C138.531 37.6719 138.697 37.6464 138.849 37.6973L281.932 89.6546C282.084 89.7055 282.199 89.8454 282.224 89.998L308.54 239.957C308.565 240.11 308.514 240.275 308.387 240.377L191.633 338.378C191.557 338.442 191.442 338.48 191.34 338.48H191.315ZM48.6394 285.734L191.226 337.527L307.586 239.868L281.36 90.4176L138.773 38.6256L22.4129 136.284L48.6394 285.734Z" fill="black" fill-opacity="0.3"/>
<path d="M178.996 349.886C178.933 349.886 178.869 349.873 178.806 349.848L31.9858 281.512C31.8459 281.449 31.7442 281.309 31.7315 281.144L17.7475 119.778C17.7348 119.613 17.811 119.46 17.9382 119.371L150.761 26.3416C150.888 26.2525 151.066 26.2398 151.206 26.3034L298.014 94.6389C298.153 94.7025 298.255 94.8423 298.268 95.0076L312.252 256.373C312.265 256.538 312.188 256.691 312.061 256.78L179.238 349.81C179.162 349.861 179.073 349.886 178.984 349.886H178.996ZM32.6087 280.8L178.946 348.92L311.349 256.195L297.403 95.351L151.054 27.2317L18.6628 119.956L32.6087 280.8Z" fill="black" fill-opacity="0.2"/>
<path d="M164.873 360.835C164.796 360.835 164.72 360.81 164.644 360.771L15.3958 274.735C15.256 274.659 15.167 274.506 15.167 274.341L15.2941 102.04C15.2941 101.875 15.3831 101.735 15.523 101.646L164.911 15.381C165.051 15.3047 165.216 15.3047 165.356 15.381L314.604 101.417C314.744 101.493 314.833 101.646 314.833 101.811L314.706 274.125C314.706 274.29 314.617 274.43 314.477 274.519L165.089 360.784C165.025 360.822 164.936 360.848 164.86 360.848L164.873 360.835ZM16.0696 274.087L164.873 359.869L313.816 273.858L313.943 102.066L165.14 16.2838L16.1967 102.294L16.0696 274.087Z" fill="black" fill-opacity="0.1"/>
<path d="M158.812 370.178C158.732 370.176 158.652 370.146 158.573 370.103L4.25704 274.177C4.1123 274.092 4.02383 273.928 4.02963 273.754L10.201 92.1238C10.2068 91.9495 10.3055 91.8052 10.456 91.7162L170.957 6.01278C171.107 5.93725 171.281 5.94304 171.426 6.02837L325.742 101.954C325.887 102.04 325.975 102.204 325.97 102.378L319.798 284.021C319.792 284.196 319.693 284.34 319.543 284.429L159.042 370.132C158.974 370.17 158.879 370.194 158.798 370.191L158.812 370.178ZM4.99003 273.517L158.846 369.16L318.869 283.709L325.023 102.615L171.167 6.97253L11.1436 92.4235L4.99003 273.517Z" fill="black" fill-opacity="0.05"/>
</svg>
